# xmcd CD database file
#
# Track frame offsets:
#	150
#	23062
#	46282
#	66887
#	81748
#	105161
#	121247
#	138308
#	155641
#	180163
#
# Disc length: 2701 seconds
#
# Revision: 0
# Processed by: cddbd v1.5.2PL0 Copyright (c) Steve Scherf et al.
# Submitted via: CDex 1.70beta2
#
DISCID=7a0a8b0a
DTITLE=Various Artist - night time cafe vol. 3
DYEAR=1900
DGENRE=Jazz
TTITLE0=lonesome desert blues
TTITLE1=pale moon
TTITLE2=hard driving papa
TTITLE3=tico tico
TTITLE4=back water blues
TTITLE5=who are you
TTITLE6=let me call you sweet heart
TTITLE7=lost your head blues
TTITLE8=hot spring blues
TTITLE9=joobalai
EXTD=
EXTT0=
EXTT1=
EXTT2=
EXTT3=
EXTT4=
EXTT5=
EXTT6=
EXTT7=
EXTT8=
EXTT9=
PLAYORDER=
